<svg xmlns="http://www.w3.org/2000/svg" viewBox="0 0 64 80" x="0px" y="0px">
    <title>Weight Gain,Gain Weight,Increase Weight,Scale,Increase</title>
    <g data-name="Weight Gain,Gain Weight,Increase Weight,Scale,Increase">
        <path
            d="M27.48,9.64A13,13,0,0,0,14.66,20.25a2.43,2.43,0,0,0,2.39,2.91H37.92a2.42,2.42,0,0,0,1.86-.87,2.46,2.46,0,0,0,.52-2A13,13,0,0,0,27.48,9.64Zm3.43,11.52H29.36l.84-.83A5.18,5.18,0,0,1,30.91,21.16Zm-4.37,0H23A4.71,4.71,0,0,1,27,19.05a4.76,4.76,0,0,1,1.47.23ZM38.24,21a.41.41,0,0,1-.32.15H33.15a6.64,6.64,0,0,0-1.54-2.24l.84-.84.09.89a1,1,0,0,0,1,.9h.1a1,1,0,0,0,.9-1.1l-.3-3v0a.77.77,0,0,0-.07-.26l0-.06-.06-.09a1.08,1.08,0,0,0-.16-.2l-.08-.06a.83.83,0,0,0-.29-.16h0a.92.92,0,0,0-.29,0H30.09a1,1,0,0,0,0,2h.73l-.87.87a6.74,6.74,0,0,0-9.2,3.41h-3.7a.41.41,0,0,1-.33-.15.46.46,0,0,1-.09-.39,11.05,11.05,0,0,1,21.71,0A.5.5,0,0,1,38.24,21Z" />
        <path
            d="M53,39.55V10.82a5,5,0,0,0-5-5H7a5,5,0,0,0-5,5V47a5,5,0,0,0,5,5h34.1A10.54,10.54,0,1,0,53,39.55ZM7,50a3,3,0,0,1-3-3V10.82a3,3,0,0,1,3-3H48a3,3,0,0,1,3,3V39.45A10.55,10.55,0,0,0,40.93,50H7ZM51.46,58.5A8.54,8.54,0,1,1,60,50,8.55,8.55,0,0,1,51.46,58.5Z" />
        <path
            d="M56,49H52.46V45.45a1,1,0,0,0-2,0V49H47a1,1,0,0,0,0,2h3.51v3.52a1,1,0,0,0,2,0V51H56a1,1,0,0,0,0-2Z" />
    </g>

</svg>