<svg xmlns="http://www.w3.org/2000/svg" data-name="Layer 1" viewBox="0 0 100 125" x="0px" y="0px">
    <title>Noun_Project_50Icon_5px_grid - diëten iconen line thick - samengesteld pad</title>
    <path
        d="M48.12,49.82a5.81,5.81,0,0,0,.6-4.33A3,3,0,0,1,49,43.42a2.44,2.44,0,0,1,1.68-1A5.34,5.34,0,0,0,54.28,40a5.6,5.6,0,0,0,.49-4.07,2.29,2.29,0,0,1,1.7-2.73,5.35,5.35,0,0,0,3.78-2.57,5.33,5.33,0,0,0,.26-4.12,1.51,1.51,0,0,0-.61-.75l-4.44-2.79-4.23-2.66-2.4-1.5a1.49,1.49,0,0,0-1.72.1,1.52,1.52,0,0,0-.49,1.67,2.36,2.36,0,0,1-.08,1.69,2.62,2.62,0,0,1-1.8,1.06,5.25,5.25,0,0,0-4,6.24,1,1,0,0,0,0,.15,2.68,2.68,0,0,1-.19,1.83,2.45,2.45,0,0,1-1.66,1,5.41,5.41,0,0,0-3.58,2.39,6.1,6.1,0,0,0-.63,4.37,2.73,2.73,0,0,1-.2,1.95c-.09.14-.37.55-1.39.69a5.21,5.21,0,0,0-3.91,2.27,6.12,6.12,0,0,0-.56,4.69A3.17,3.17,0,0,1,28.39,51a2.59,2.59,0,0,1-1.74,1.06c-4.32,1-5,5.31-4.82,7.46a1.52,1.52,0,0,0,.69,1.12l3.19,2,4.66,2.92,3.22,2a1.4,1.4,0,0,0,.79.23,1.5,1.5,0,0,0,1.5-1.64c0-.37-.25-3.6,2.51-4.24A5.48,5.48,0,0,0,42,59.53a6.21,6.21,0,0,0,.63-4.48,3.16,3.16,0,0,1,.19-2.31,2.42,2.42,0,0,1,1.79-.9A4.75,4.75,0,0,0,48.12,49.82ZM24.8,58.55A3.46,3.46,0,0,1,27.32,55,5.54,5.54,0,0,0,31,52.58a6.16,6.16,0,0,0,.62-4.47,3.24,3.24,0,0,1,.2-2.32,2.42,2.42,0,0,1,1.79-.9,4.69,4.69,0,0,0,3.48-2,5.73,5.73,0,0,0,.6-4.34,3.16,3.16,0,0,1,.27-2.05,2.53,2.53,0,0,1,1.7-1A5.3,5.3,0,0,0,43.21,33a5.61,5.61,0,0,0,.5-4.07,2.27,2.27,0,0,1,1.7-2.72,5.39,5.39,0,0,0,3.77-2.58,4.72,4.72,0,0,0,.37-.88l.82.52.15.52,0,.13a1.3,1.3,0,0,1,0,.89,1.88,1.88,0,0,1-1.14.57,6.24,6.24,0,0,0-4.74,7.39,1.41,1.41,0,0,0,.06.22,1.72,1.72,0,0,1-.09,1.08,1.75,1.75,0,0,1-1,.53,6.37,6.37,0,0,0-4.21,2.85,7.18,7.18,0,0,0-.75,5.13,1.92,1.92,0,0,1-.06,1.16,1.21,1.21,0,0,1-.69.25,6.21,6.21,0,0,0-4.62,2.72,7.18,7.18,0,0,0-.68,5.5,2.19,2.19,0,0,1-.17,1.34,1.69,1.69,0,0,1-1.12.63A6.9,6.9,0,0,0,26,59.33Zm15.51-7.42a6.15,6.15,0,0,0-.56,4.7A3.24,3.24,0,0,1,39.46,58,2.61,2.61,0,0,1,37.72,59a6,6,0,0,0-4.62,4.73l-2.4-1.51v0c0-.11-.26-2.69,1.74-3.15a6.5,6.5,0,0,0,4.26-2.88,7.2,7.2,0,0,0,.73-5.27,2.35,2.35,0,0,1,.08-1.5c.19-.29.76-.41,1.08-.46a5.69,5.69,0,0,0,4.19-2.45,6.81,6.81,0,0,0,.74-5.1,1.39,1.39,0,0,1,1.21-1.91A6.28,6.28,0,0,0,49,36.58a6.63,6.63,0,0,0,.62-4.73c-.17-1.34.66-1.53.93-1.59A6.4,6.4,0,0,0,55,27.19a5.66,5.66,0,0,0,.35-.81l2.47,1.55a2,2,0,0,1-.18,1.25,2.6,2.6,0,0,1-1.79,1.06,5.26,5.26,0,0,0-4,6.24,1.13,1.13,0,0,0,0,.15,2.68,2.68,0,0,1-.19,1.83,2.45,2.45,0,0,1-1.67,1,5.44,5.44,0,0,0-3.58,2.4,6.1,6.1,0,0,0-.62,4.38,2.86,2.86,0,0,1-.2,1.93c-.09.14-.36.56-1.39.7A5.23,5.23,0,0,0,40.31,51.13Zm30.4-18.92a4.82,4.82,0,0,0-3.31-.8c-6.34.38-7.49,3.26-10.52,10.93l-.22.54A14.15,14.15,0,0,1,52,49a23.39,23.39,0,0,0-7.63,10.88c-1.88,4.94.41,11.46,5.21,14.84a10.79,10.79,0,0,0,6.29,2.06,13.24,13.24,0,0,0,8.55-3.5c4.91-4.19,8.1-11.26,9.22-20.43A59.35,59.35,0,0,0,73.46,37,7.09,7.09,0,0,0,70.71,32.21ZM62.44,71c-5.09,4.36-9.18,2.66-11.16,1.27-3.67-2.59-5.53-7.66-4.14-11.32a20.51,20.51,0,0,1,6.79-9.68A16.94,16.94,0,0,0,59.45,44l.22-.55c3.08-7.79,3.64-8.8,8-9a.76.76,0,0,0,.21,0H68A1.93,1.93,0,0,1,69,34.7a4.34,4.34,0,0,1,1.48,2.87C71.37,42.1,72.63,62.29,62.44,71Zm.43-17.06c-2.76-2-7-.6-9.66,3.12a10,10,0,0,0-1.93,5.44,5.46,5.46,0,0,0,2.1,4.71,4.91,4.91,0,0,0,2.89.88,6.59,6.59,0,0,0,2.25-.41,10.5,10.5,0,0,0,6.45-9A5.44,5.44,0,0,0,62.87,53.93Zm-2.27,8.4a7,7,0,0,1-3.12,2.52,2.14,2.14,0,0,1-3.2-2.29,7,7,0,0,1,1.37-3.76c1.77-2.48,4.3-3.27,5.47-2.43a2.6,2.6,0,0,1,.85,2.2A6.94,6.94,0,0,1,60.6,62.33ZM50,8.75A41.25,41.25,0,1,0,91.25,50,41.3,41.3,0,0,0,50,8.75Zm0,79.5A38.25,38.25,0,1,1,88.25,50,38.29,38.29,0,0,1,50,88.25Z" />

</svg>