<svg xmlns="http://www.w3.org/2000/svg" xmlns:xlink="http://www.w3.org/1999/xlink" version="1.1" x="0px" y="0px" viewBox="0 0 32 40" enable-background="new 0 0 32 32" xml:space="preserve"><g><path d="M23.015,3.757h-14c-3.033,0-5.5,2.467-5.5,5.5v13.482c0,3.032,2.467,5.5,5.5,5.5h14c3.032,0,5.5-2.468,5.5-5.5V9.257   C28.515,6.224,26.047,3.757,23.015,3.757z M27.515,20.334c0,2.481-2.019,4.5-4.5,4.5h-14c-2.481,0-4.5-2.019-4.5-4.5V9.257   c0-2.481,2.019-4.5,4.5-4.5h14c2.481,0,4.5,2.019,4.5,4.5V20.334z"/><path d="M25.817,19.73c-0.263-0.074-0.542,0.079-0.617,0.346c-0.047,0.167-0.104,0.328-0.175,0.485   c-0.113,0.252,0,0.548,0.252,0.66c0.066,0.03,0.136,0.044,0.204,0.044c0.19,0,0.373-0.11,0.456-0.296   c0.09-0.2,0.165-0.408,0.226-0.622C26.238,20.082,26.083,19.806,25.817,19.73z"/><path d="M24.106,21.795c-0.637,0.549-1.446,0.851-2.28,0.851h-1.4c-0.276,0-0.5,0.224-0.5,0.5s0.224,0.5,0.5,0.5h1.4   c1.074,0,2.115-0.388,2.933-1.093c0.209-0.181,0.232-0.496,0.053-0.705C24.632,21.638,24.313,21.616,24.106,21.795z"/><path d="M22.943,13.996c0.372-0.452,0.523-1.036,0.413-1.604c-0.659-3.405-3.741-5.877-7.327-5.877   c-3.586,0-6.668,2.472-7.327,5.877c-0.11,0.567,0.041,1.152,0.413,1.604c0.384,0.465,0.948,0.732,1.549,0.732h10.729   C21.995,14.727,22.56,14.461,22.943,13.996z M9.684,12.582c0.558-2.884,3.187-5.067,6.345-5.067c3.159,0,5.787,2.183,6.346,5.067   c0.115,0.597-0.373,1.145-0.981,1.145H16.45l-2.78-4.072c-0.156-0.229-0.467-0.286-0.695-0.131   c-0.228,0.156-0.287,0.467-0.131,0.695l2.395,3.509h-4.575C10.057,13.727,9.568,13.179,9.684,12.582z"/><circle cx="16.013" cy="9.17" r="0.551"/><circle cx="18.802" cy="9.937" r="0.551"/><circle cx="11.43" cy="12.238" r="0.551"/><circle cx="20.632" cy="12.238" r="0.551"/></g><text x="0" y="47" fill="#000000" font-size="5px" font-weight="bold" font-family="'Helvetica Neue', Helvetica, Arial-Unicode, Arial, Sans-serif">Created by Guilherme Simoes</text><text x="0" y="52" fill="#000000" font-size="5px" font-weight="bold" font-family="'Helvetica Neue', Helvetica, Arial-Unicode, Arial, Sans-serif">from the Noun Project</text></svg>