<svg xmlns="http://www.w3.org/2000/svg" version="1.1" viewBox="-5.0 -10.0 110.0 135.0">
    <path
        d="m83.012 16.988c-8.8125-8.8164-20.543-13.68-33.012-13.68s-24.199 4.8633-33.012 13.68c-8.8164 8.8125-13.68 20.543-13.68 33.012s4.8594 24.199 13.672 33.012c8.8203 8.8164 20.551 13.68 33.02 13.68s24.199-4.8594 33.012-13.672c8.8164-8.8203 13.68-20.551 13.68-33.02s-4.8633-24.199-13.68-33.012zm11.398 33.012c0 11.84-4.6602 22.602-12.238 30.559l-30.562-30.559 30.559-30.559c7.582 7.957 12.242 18.719 12.242 30.559zm-13.852-32.172-30.559 30.562-30.559-30.562c7.957-7.5781 18.719-12.238 30.559-12.238s22.602 4.6602 30.559 12.238zm-74.969 32.172c0-11.84 4.6602-22.602 12.238-30.559l30.562 30.559-30.562 30.559c-7.5781-7.957-12.238-18.719-12.238-30.559zm13.852 32.172 30.559-30.562 30.559 30.559c-7.957 7.582-18.719 12.242-30.559 12.242s-22.602-4.6602-30.559-12.238zm58.617-42.422c0.30078-1.4297 0.96875-2.5898 2.4688-3.4219 0.55078-0.30859 0.75-1 0.44141-1.5508-0.30859-0.55078-1-0.75-1.5508-0.44141-2.5508 1.4219-3.4219 3.5703-3.7188 5.6094-1.4414-0.82031-2.9883-1.2109-4.5-1.0898-2.4609 0.19141-4.4414 1.2188-5.7305 2.9609-1.6797 2.2695-2.1484 5.6289-1.3086 9.4492 0.76172 3.4883 3.1719 8 6.6602 9.6602 0.94922 0.44922 1.9414 0.67969 2.9492 0.67969 0.96875 0 1.9492-0.21094 2.9297-0.62109 2 0.85156 4.0195 0.82812 5.8789-0.058594 3.4805-1.6602 5.8906-6.1719 6.6602-9.6602 0.83984-3.8281 0.37891-7.1797-1.3086-9.4492-1.2891-1.7383-3.2695-2.7617-5.7305-2.9609-1.3789-0.10547-2.8008 0.20312-4.1406 0.89453zm8.043 3.4219c1.2695 1.7109 1.6016 4.4805 0.91016 7.6094-0.67188 3.0586-2.75 6.8203-5.4102 8.0898-1.3984 0.67188-2.8281 0.62109-4.3789-0.16016-0.16016-0.078126-0.33984-0.12109-0.51172-0.12109-0.17188 0-0.35156 0.039062-0.51172 0.12109-1.5508 0.78125-2.9883 0.82812-4.3789 0.16016-2.6719-1.2695-4.7383-5.0312-5.4102-8.0898-0.69141-3.1289-0.35156-5.8984 0.91016-7.6094 0.89844-1.2109 2.2695-1.8984 4.0781-2.0391 1.5195-0.12109 3.1406 0.51172 4.5508 1.7812 0.42969 0.39063 1.0898 0.39063 1.5195 0 1.4219-1.2695 3.0391-1.8984 4.5508-1.7812 1.8086 0.13672 3.1797 0.82813 4.082 2.0391zm-65.242 19.438c0.089844 0.058594 0.17969 0.10156 0.28125 0.14062 0.62109 0.19141 1.2305 0.28125 1.8281 0.28125 1.0195 0 1.9883-0.26953 2.8906-0.80078 1.8516-1.1016 3.2188-3.2617 3.75-5.9297 0.070313-0.32812-0.019531-0.67188-0.21875-0.92969-0.21094-0.26172-0.51953-0.42188-0.85938-0.42969-2.5195-0.070312-4.7617 0.66016-6.2617 2 0.16016-0.83984 0.28906-1.6914 0.41016-2.5312 0.058593 0.03125 0.12891 0.058594 0.19922 0.078125 0.5 0.12109 0.98828 0.17969 1.4805 0.17969 1.1484 0 2.2305-0.33984 3.1992-0.98828 1.7695-1.2109 3.0117-3.4492 3.3789-6.1484 0.050781-0.32812-0.058594-0.67188-0.28125-0.92188-0.23047-0.25-0.55078-0.39062-0.89062-0.37891-2.7188 0.10156-5.0703 1.0898-6.4609 2.7305-0.03125 0.03125-0.050782 0.058593-0.070313 0.089843 0.058594-0.91016 0.10938-1.7812 0.14062-2.6211 0.050781 0.019531 0.10156 0.039062 0.16016 0.050781 0.39844 0.070312 0.78906 0.10938 1.1797 0.10938 1.2617 0 2.4414-0.39062 3.4492-1.1602 1.7109-1.3008 2.8281-3.6016 3.0586-6.3086 0.03125-0.32812-0.089844-0.67188-0.32812-0.89844-0.23828-0.23828-0.57031-0.35938-0.89844-0.32812-2.7109 0.23047-5.0117 1.3516-6.3086 3.0586-0.070312 0.10156-0.14062 0.19922-0.19922 0.30078v-1.1484c1.1406-0.94922 1.8281-2.1914 2.0312-3.6406 0.28906-2.1289-0.55078-4.5508-2.3008-6.6289-0.21875-0.26172-0.53906-0.41016-0.87109-0.41016-0.32812 0-0.66016 0.14844-0.87109 0.41016-1.75 2.0781-2.5898 4.5-2.3008 6.6289 0.19922 1.4492 0.89844 2.6992 2.0391 3.6484v1.3203c-0.10156-0.16016-0.19922-0.32031-0.32031-0.46875-1.3008-1.7109-3.6016-2.8281-6.3086-3.0586-0.32813-0.03125-0.67188 0.089844-0.89844 0.32812-0.23828 0.23828-0.35938 0.57031-0.32812 0.89844 0.23047 2.7109 1.3516 5.0117 3.0586 6.3086 1.0117 0.76953 2.1914 1.1602 3.4492 1.1602 0.39062 0 0.78125-0.039062 1.1797-0.10937 0.03125-0.011719 0.050781-0.019532 0.078125-0.03125-0.039062 1.0703-0.10938 2.1914-0.19922 3.3594-0.17188-0.35156-0.37109-0.69141-0.62109-1.0117-1.3008-1.7109-3.6016-2.8203-6.3086-3.0586-0.32812-0.03125-0.67188 0.089844-0.89844 0.32812-0.23828 0.23828-0.35938 0.57031-0.32812 0.89844 0.23047 2.7109 1.3516 5.0117 3.0586 6.3086 1.0117 0.76953 2.1914 1.1602 3.4492 1.1602 0.37891 0 0.76172-0.039062 1.1484-0.10937-0.19141 1.3008-0.42188 2.6016-0.69922 3.8906-0.12891-0.44141-0.32031-0.87891-0.55859-1.2891-1.1016-1.8516-3.2617-3.2188-5.9297-3.7617-0.32812-0.070312-0.67188 0.019531-0.92969 0.21875-0.26172 0.21094-0.42188 0.51953-0.42969 0.85938-0.070312 2.7188 0.76953 5.1289 2.3203 6.6211 1.0898 1.0391 2.4688 1.5898 4.0117 1.5898 0.10937 0 0.21875-0.011719 0.33984-0.011719-0.82031 2.3594-1.8711 4.5312-3.2617 6.2695-0.39062 0.48828-0.30859 1.2109 0.17969 1.6016 0.21094 0.17188 0.46094 0.25 0.71094 0.25 0.33984 0 0.67187-0.14844 0.89062-0.42969 1.6406-2.0938 2.8789-4.7031 3.7891-7.5352zm2.6992-3.7695c0.78125-0.82031 1.9883-1.3516 3.4219-1.5508-0.51172 1.3516-1.3008 2.3984-2.2812 2.9805-0.64062 0.37891-1.3281 0.53906-2.0586 0.46875 0.097656-0.72656 0.41016-1.3672 0.91797-1.8984zm1.4922-8.4102c0.73047-0.85938 1.8984-1.4805 3.3086-1.7617-0.42969 1.3789-1.1484 2.4805-2.0898 3.1211-0.60938 0.42188-1.2891 0.62109-2.0312 0.60156 0.0625-0.74219 0.33203-1.4023 0.8125-1.9609zm0.4375-8.1094c0.67969-0.89844 1.8203-1.5703 3.2188-1.9219-0.35156 1.3984-1.0195 2.5312-1.9219 3.2188-0.58984 0.44922-1.2617 0.67969-1.9883 0.69922 0.011719-0.73828 0.24219-1.4062 0.69141-1.9961zm-7.7188 1.2891c-0.89844-0.69141-1.5703-1.8203-1.9219-3.2188 1.3984 0.35156 2.5312 1.0195 3.2188 1.9219 0.44922 0.58984 0.67969 1.2617 0.69922 1.9883-0.73438 0-1.4062-0.24219-1.9961-0.69141zm-0.59766 7.8711c-0.89844-0.67969-1.5703-1.8203-1.9297-3.2188 1.3984 0.35156 2.5312 1.0195 3.2188 1.9219 0.44922 0.58984 0.67969 1.2617 0.69922 1.9883-0.73047-0.011719-1.3984-0.24219-1.9883-0.69141zm0.46875 8.6914c-0.73047-0.10156-1.3711-0.41016-1.8984-0.92188-0.82031-0.78125-1.3516-1.9883-1.5508-3.4219 1.3516 0.51172 2.3984 1.3008 2.9805 2.2812 0.37891 0.64062 0.53906 1.332 0.46875 2.0625zm4.6875-27.672c0.73828 1.2383 1.0703 2.5195 0.92188 3.6406-0.10156 0.73047-0.41016 1.3711-0.91016 1.8984h-0.011719c-0.51172-0.53125-0.80859-1.1602-0.91016-1.8984-0.15625-1.1211 0.17188-2.4023 0.91016-3.6406zm6.9219-9.4102c3.9805 3.8086 9.6797 6 15.648 6 6.0195 0 11.621-2.1602 15.602-5.9609 1.6211 2.0117 3.6992 3.5 5.9805 4.2617 0.12109 0.039063 0.23828 0.058594 0.35938 0.058594 0.44141 0 0.85938-0.26172 1.0391-0.67969 0.71875-1.6289 1.1016-3.4883 1.1016-5.3906 0-1.8984-0.37891-3.7617-1.1016-5.3906-0.23828-0.53906-0.83984-0.80859-1.3984-0.62109-2.2812 0.76172-4.3594 2.25-5.9805 4.2617-3.9805-3.8008-9.5781-5.9609-15.602-5.9609-5.9688 0-11.672 2.1914-15.648 6-0.46875 0.44922-0.73047 1.0586-0.73047 1.6992 0.011719 0.66406 0.26172 1.2617 0.73047 1.7227zm36.941-5.1484c0.33984 1.0781 0.51953 2.25 0.51953 3.4414 0 1.1914-0.17969 2.3711-0.51953 3.4414-1.5898-0.73828-3.0312-1.9297-4.1719-3.4414 1.1406-1.5117 2.582-2.7031 4.1719-3.4414zm-7.1523 3.4375c-3.5586 3.4609-8.6484 5.4297-14.141 5.4297-1.2695 0-2.5195-0.12109-3.7383-0.32812 0.19922-0.44922 0.37109-0.92188 0.51953-1.3906h2.3711c0.62891 0 1.1406-0.51172 1.1406-1.1406 0-0.62891-0.51172-1.1406-1.1406-1.1406h-1.8906c0.050782-0.46875 0.089844-0.94922 0.089844-1.4297 0-1.7695-0.37109-3.5-1.0781-5.1016 1.2188-0.21094 2.4688-0.32812 3.7383-0.32812 5.4805 0 10.57 1.9727 14.129 5.4297zm-28.211-0.058594c2.1914-2.1016 4.9688-3.6406 8.0391-4.5195 0.71094 1.4219 1.1016 2.9805 1.1016 4.5781 0 1.6016-0.39062 3.1602-1.1016 4.5781-3.0703-0.87891-5.8594-2.4219-8.0391-4.5195-0.011719-0.011719-0.03125-0.03125-0.03125-0.058594 0.003906-0.027344 0.023437-0.050781 0.03125-0.058594zm4.8125-1.6914c0-0.71094 0.57812-1.2891 1.2891-1.2891 0.71094 0 1.2891 0.57812 1.2891 1.2891 0 0.71094-0.57812 1.2891-1.2891 1.2891-0.71094 0.003906-1.2891-0.57812-1.2891-1.2891zm24.93 48.82c-0.019531-0.98828-0.46875-1.9297-1.3008-2.5898-0.76953-0.60938-1.7109-0.85938-2.6211-0.71875-0.57031-0.89062-1.4688-1.5195-2.5508-1.7695-0.71875-0.16016-1.4414-0.12891-2.1211 0.078125-0.16016-0.37891-0.37891-0.73047-0.64844-1.0508-0.71875-0.82031-1.7617-1.3008-2.8594-1.3008-1.1484 0-2.2305 0.51172-2.9609 1.4102-0.35156 0.42969-0.58984 0.92188-0.73047 1.4492-0.80859-0.039062-1.6406 0.19922-2.2891 0.73047-0.85156 0.67969-1.2891 1.6719-1.2891 2.6797-0.82031 0.050781-1.6289 0.30859-2.3398 0.78125-1.3008 0.87109-2.0781 2.3203-2.0781 3.8906 0 1.2617 0.5 2.4492 1.3984 3.3398 0.69141 0.67969 1.5508 1.1211 2.4805 1.2812 0.60156 1.4805 1.9297 2.5898 3.5312 2.8711 0.14062 0.019531 0.26953 0.019531 0.41016 0.039062 0.58984 1.7109 0.80078 3.6406 0.85156 7.2383 0.019531 1.6484 1.3789 3 3.0391 3h3.0312c1.6484 0 3.0117-1.3398 3.0391-3 0.050781-4.2109 0.32812-6.1289 1.2188-8.1797 0.17969-0.039062 0.37109-0.058594 0.55078-0.10938 1.0586-0.33984 1.9688-1.0586 2.5508-2 0.96094 0.039063 1.9102-0.26172 2.6992-0.85938 1.0508-0.80078 1.6484-2.0117 1.6484-3.3281-0.019531-1.7305-1.1094-3.2617-2.6602-3.8828zm-9.0508 19.082h-3.0312c-0.41016 0-0.75-0.33984-0.76172-0.75-0.050781-3.6406-0.26953-5.7188-0.85156-7.5781 0.46094-0.19922 0.89062-0.46094 1.2695-0.80078 0.23047 0.14062 0.46875 0.23828 0.71875 0.32812v1.3086c0 0.62891 0.51172 1.1406 1.1406 1.1406s1.1406-0.51172 1.1406-1.1406l0.003907-1.2383c0.51172-0.14062 0.98047-0.37109 1.3906-0.69922 0.26953 0.16016 0.55078 0.28125 0.85156 0.37891-0.78125 2.0898-1.0391 4.2695-1.1016 8.3008-0.019531 0.41797-0.35937 0.75-0.76953 0.75zm8.6602-13.68c-0.48047 0.37109-1.0898 0.48047-1.6719 0.32031-0.57031-0.16016-1.1719 0.14844-1.3711 0.71094-0.25 0.69141-0.82031 1.2383-1.5195 1.4609-0.85938 0.28125-1.7891 0.050781-2.4297-0.58984-0.23828-0.23828-0.58984-0.35938-0.92969-0.32031-0.33984 0.039062-0.64844 0.23047-0.82812 0.51953-0.28906 0.44922-0.78125 0.71875-1.3086 0.71875-0.46875 0-0.92188-0.21094-1.2109-0.57812-0.23047-0.28906-0.58984-0.44141-0.94922-0.42188-0.37109 0.019531-0.69922 0.21875-0.89844 0.53125-0.51953 0.82812-1.4883 1.2617-2.4609 1.0898-0.96875-0.17188-1.75-0.94141-1.9414-1.9102-0.10156-0.53906-0.57031-0.92187-1.1211-0.92187h-0.019531c-0.64844 0.011718-1.2617-0.23828-1.7305-0.69141-0.46094-0.46094-0.71875-1.0586-0.71875-1.7109 0-0.82031 0.39063-1.5391 1.0703-2 0.67188-0.44922 1.5195-0.53125 2.2617-0.21875 0.48047 0.19922 1.0312 0.050781 1.3516-0.35938 0.30859-0.41016 0.30859-0.98828-0.011718-1.3906-0.42969-0.55078-0.23828-1.2617 0.19141-1.6016 0.37109-0.28906 0.92188-0.30859 1.3203-0.050781 0.39062 0.26172 0.89062 0.25 1.2695-0.011719 0.37891-0.26172 0.57031-0.73047 0.46875-1.1797-0.10156-0.44922 0.011718-0.92188 0.30859-1.2812 0.28906-0.35938 0.71875-0.57031 1.1797-0.57031 0.44922 0 0.85156 0.17969 1.1484 0.51953 0.28906 0.33984 0.42188 0.76953 0.35938 1.2109-0.058593 0.48047 0.19141 0.94922 0.62109 1.1719 0.44141 0.21875 0.96094 0.12891 1.3086-0.21094 0.44922-0.44922 1.0703-0.62109 1.6914-0.48047 0.66016 0.14844 1.1602 0.62109 1.3516 1.2617 0.10156 0.32812 0.33984 0.60156 0.66016 0.73047 0.32031 0.12891 0.67969 0.10938 0.98047-0.058594 0.60938-0.33984 1.1094 0 1.25 0.10938 0.14844 0.12109 0.62109 0.57031 0.35938 1.2695-0.12109 0.32812-0.078126 0.69922 0.10937 1 0.19141 0.30078 0.51172 0.48828 0.85938 0.51953 0.98047 0.078125 1.7383 0.92188 1.7383 1.8984 0.011719 0.60547-0.25781 1.1523-0.73828 1.5156z" />

</svg>